<svg class="thumb" width="531" height="476" viewBox="0,0,531,476" xmlns="http://www.w3.org/2000/svg" xmlns:inkscape="http://www.inkscape.org/namespaces/inkscape" xmlns:sodipodi="http://sodipodi.sourceforge.net/DTD/sodipodi-0.dtd" xmlns:xlink="http://www.w3.org/1999/xlink" xmlns:ns1="http://www.inkscape.org/namespaces/inkscape" xmlns:sketch="http://www.bohemiancoding.com/sketch/ns"><defs></defs><g><g transform="matrix(1.506,-0.4318,0.2458,0.8572,130.8642,275.5828)"><svg width="187.0337218024264" height="186.77" viewBox="-5.131860901213205,-5,187.0337218024264,186.77" class="thumb"><defs><linearGradient x1="0" y1="0.5" x2="1" y2="0.5" id="linearGradientSk9tps96v2o3"><stop offset="0%" stop-color="#083b66"></stop><stop offset="100%" stop-color="#083b66"></stop></linearGradient></defs><circle cx="88.385" cy="88.385" r="88.385" fill="url('#linearGradientSk9tps96v2o3')"></circle></svg></g><g transform="matrix(1.6373,-0.4695,0.2458,0.8572,15.5797,245.1053)"><svg width="187.0337218024264" height="186.77" viewBox="-5.131860901213205,-5,187.0337218024264,186.77" class="thumb"><defs><linearGradient x1="0" y1="0.5" x2="1" y2="0.5" id="linearGradientSk9tps96v2o9"><stop offset="0%" stop-color="#4bc4d1"></stop><stop offset="100%" stop-color="#4bc4d1"></stop></linearGradient></defs><circle cx="88.385" cy="88.385" r="88.385" fill="url('#linearGradientSk9tps96v2o9')"></circle></svg></g><g transform="matrix(-2.6937,0.4266,-0.4266,-2.6937,342.3867,348.5637)"><svg width="98.89191394793217" height="65.78623783232399" viewBox="0.5553726656778739,17.11476216767599,98.89191394793217,65.78623783232399"><defs><linearGradient x1="0" y1="0.5" x2="1" y2="0.5" id="linearGradientSk9tps96v2of"><stop offset="0%" stop-color="#083b66"></stop><stop offset="100%" stop-color="#083b66"></stop></linearGradient></defs><path fill="url('#linearGradientSk9tps96v2of')" d="M94.428,50.521c-0.021-0.474-0.062-0.944-0.136-1.406v0c0-0.001,0-0.003,0-0.004  c-0.002-0.008-0.004-0.02-0.006-0.03c0,0,0,0,0-0.001c-0.003-0.011-0.005-0.021-0.007-0.033c0-0.001,0-0.003,0-0.004l-0.013-0.057  c-0.033-0.201-0.07-0.401-0.114-0.6c0-0.001,0-0.002,0-0.002c0-0.002-0.002-0.009-0.004-0.013c0-0.002,0-0.004,0-0.006v0  c-0.005-0.015-0.007-0.028-0.011-0.044c0-0.002,0-0.004,0-0.005c-0.064-0.283-0.127-0.565-0.186-0.85v0  c-0.686-3.292-0.989-6.727-0.936-10.5c0-0.011-0.006-0.02-0.006-0.03c0.002-0.037,0.006-0.076,0.008-0.113  c0.002-0.124-0.031-0.238-0.079-0.344c0-0.012,0.002-0.026,0.002-0.039c-0.002-0.594-0.056-1.176-0.135-1.749l0.072-0.018  l-0.075,0.005c-0.004-0.021-0.006-0.043-0.008-0.064l0.07-0.011c-0.017-0.114-0.058-0.217-0.116-0.309  c-0.009-0.057-0.013-0.116-0.023-0.172c-0.14-0.736-0.348-1.458-0.62-2.146c-0.268-0.672-0.601-1.327-0.994-1.949  c-0.358-0.562-0.773-1.1-1.229-1.61c-0.02-0.027-0.027-0.058-0.051-0.083c-0.002-0.003-0.006-0.004-0.008-0.007  c-0.002-0.002-0.002-0.004-0.004-0.006c0-0.001-0.002-0.002-0.005-0.004c-0.002-0.002-0.002-0.004-0.004-0.006  c0-0.002-0.004-0.004-0.006-0.005c0,0,0-0.001,0-0.002c-0.847-0.917-1.845-1.737-2.982-2.462c-0.004-0.003-0.008-0.006-0.015-0.009  c0,0,0-0.001-0.002-0.001c-0.517-0.33-1.069-0.637-1.645-0.925c-0.031-0.016-0.058-0.035-0.089-0.05  c-0.038-0.019-0.077-0.035-0.115-0.053c-0.212-0.103-0.431-0.202-0.649-0.299c-0.136-0.06-0.27-0.121-0.409-0.179  c-0.21-0.088-0.425-0.172-0.642-0.256c-0.098-0.037-0.191-0.079-0.29-0.115c-0.033-0.012-0.068-0.021-0.102-0.033  c-0.096-0.035-0.186-0.073-0.283-0.106c-0.029-0.011-0.059-0.005-0.088-0.012c-0.509-0.177-1.023-0.353-1.557-0.501  c-0.759-0.211-1.561-0.397-2.386-0.553c-1.601-0.304-3.312-0.502-5.089-0.586c-1.729-0.084-3.536-0.06-5.379,0.068  c-0.116,0.008-0.237,0.025-0.356,0.035c-0.019,0-0.035-0.009-0.054-0.007c-0.786,0.061-1.575,0.145-2.367,0.242  c-0.125,0.016-0.252,0.036-0.377,0.052c-0.757,0.099-1.516,0.214-2.271,0.345c-0.121,0.021-0.24,0.033-0.36,0.055  c-0.111,0.02-0.22,0.047-0.33,0.068c-0.779,0.144-1.559,0.303-2.336,0.48c-0.094,0.022-0.188,0.04-0.283,0.062  c-0.875,0.204-1.748,0.433-2.615,0.677c-0.068,0.019-0.138,0.033-0.204,0.053c-0.123,0.035-0.246,0.079-0.369,0.115  c-0.748,0.218-1.489,0.451-2.228,0.697c-0.186,0.062-0.371,0.121-0.557,0.185c-0.896,0.309-1.785,0.637-2.662,0.986  c-0.016,0.006-0.032,0.011-0.048,0.018c-0.044,0.017-0.085,0.038-0.129,0.056c-0.849,0.341-1.684,0.703-2.507,1.08  c-0.03,0.014-0.06,0.027-0.089,0.041c-3.05,1.4-5.913,3.035-8.472,4.861c-0.015,0.009-0.031,0.01-0.046,0.02l-0.194,0.14  c-0.018,0.013-0.026,0.032-0.042,0.046c-0.839,0.608-1.655,1.232-2.422,1.88c0,0,0,0-0.001,0.001s-0.001,0-0.002,0.001  c-2.74,2.315-6.524,4.609-11.57,7.014c0,0,0,0-0.001,0c-1.232,0.587-2.438,1.205-3.583,1.834c-0.529,0.292-1.047,0.59-1.558,0.891  c-0.008,0.004-0.018,0.004-0.025,0.009c-0.068,0.04-0.14,0.083-0.208,0.125c-0.014,0.008-0.027,0.016-0.041,0.024  c-4.195,2.49-9.491,6.321-12.297,11.033c-0.002,0.004-0.006,0.006-0.008,0.01l-0.043,0.073c-0.206,0.351-0.401,0.705-0.578,1.065  c-0.026,0.054-0.043,0.106-0.069,0.16c-0.007,0.012-0.019,0.02-0.025,0.032c0,0.001-0.033,0.067-0.034,0.068v0.001  c-0.368,0.748-0.638,1.463-0.833,2.186c-0.005,0.013-0.008,0.023-0.013,0.036c0,0.001,0,0.001,0,0.001  c0,0.001-0.001,0.004-0.001,0.005c-0.001,0.003-0.001,0.006-0.002,0.009c-0.009,0.023-0.019,0.048-0.023,0.066  c-0.001,0.005,0,0.01-0.001,0.016c-0.002,0.008-0.007,0.019-0.008,0.026c-0.003,0.015,0.002,0.026,0,0.041  c-0.176,0.704-0.275,1.399-0.284,2.07c-0.005,0.4,0.02,0.793,0.071,1.163c0.039,0.29,0.102,0.576,0.176,0.859  c-0.019,0.112-0.018,0.229,0.015,0.345c0.003,0.014,0.01,0.026,0.014,0.039c0.001,0.005,0,0.01,0.001,0.014  c0.478,1.685,0.935,3.374,1.371,5.07c0.05,0.197,0.127,0.387,0.194,0.581c0.007,0.035,0.002,0.071,0.015,0.107  c0.035,0.1,0.08,0.194,0.119,0.292c0.019,0.05,0.038,0.098,0.058,0.146c0.736,1.765,2.067,3.28,3.977,4.507  c0,0.001,0.002,0.001,0.003,0.001c0.049,0.031,0.102,0.061,0.154,0.091c0.011,0.008,0.018,0.021,0.029,0.028  c0.005,0.003,0.044,0.028,0.069,0.044c0.001,0.001,0.002,0.002,0.003,0.003c0.344,0.221,0.71,0.431,1.09,0.63  c0.007,0.005,0.011,0.012,0.019,0.016c0.094,0.051,0.196,0.089,0.292,0.137c0.223,0.111,0.441,0.228,0.674,0.33  c0.074,0.034,0.155,0.062,0.23,0.094c0.282,0.123,0.569,0.238,0.859,0.35c0.087,0.033,0.177,0.065,0.266,0.098  c3.522,1.293,7.581,1.74,11.447,1.74c1.449,0,2.868-0.062,4.22-0.161c0.019,0,0.037-0.001,0.055-0.003  c0.034-0.002,0.068-0.005,0.103-0.008c0.048-0.003,0.095-0.008,0.143-0.012c0.223-0.017,0.445-0.034,0.667-0.053  c0.008-0.001,0.014-0.006,0.022-0.007c2.012-0.178,3.847-0.429,5.354-0.678c0.005-0.001,0.01,0,0.014-0.001l0.466-0.07  c4.785-0.724,9.307-1.407,14.074-1.043l0,0c1.175,0.091,2.378,0.137,3.582,0.137c0.067,0,0.134,0,0.198,0  c0.04,0,0.079-0.003,0.119-0.003c0.006,0,0.01,0.003,0.017,0.003c0.002,0,0.004,0,0.006,0c0.086-0.001,0.175-0.01,0.263-0.011  c0.803-0.011,1.608-0.045,2.411-0.096c0.241-0.015,0.481-0.029,0.723-0.048c0.14-0.011,0.279-0.016,0.419-0.027  c0.74-0.062,1.482-0.146,2.226-0.242c0.178-0.023,0.354-0.051,0.531-0.076c0.807-0.112,1.615-0.244,2.424-0.394  c0.165-0.031,0.327-0.058,0.492-0.09c0.733-0.144,1.467-0.299,2.194-0.475c0.142-0.033,0.279-0.073,0.421-0.109  c0.272-0.067,0.546-0.141,0.818-0.213c0.623-0.165,1.242-0.341,1.857-0.528c0.527-0.16,1.05-0.329,1.571-0.505  c0.462-0.156,0.923-0.312,1.377-0.481c0.533-0.194,1.059-0.4,1.58-0.612c0.041-0.017,0.085-0.031,0.127-0.049  c0.096-0.039,0.188-0.082,0.281-0.122c1.483-0.616,2.934-1.275,4.305-2.015c4.177-2.25,7.331-4.684,9.926-7.658  c2.095-2.403,4.516-6.103,4.739-10.505c0-0.021,0.004-0.044,0.006-0.066c0-0.012-0.002-0.022,0-0.034  c0.015-0.355,0.021-0.715,0.004-1.08C94.436,50.544,94.428,50.534,94.428,50.521z M36.814,37.087  c5.171-4.969,11.511-8.002,15.918-9.672c6.08-2.303,12.423-3.549,18.346-3.605c4.43-0.037,12.565,0.607,17.085,5.422  c0.002,0.003,0.007,0.003,0.009,0.006c0.006,0.008,0.015,0.017,0.019,0.022v0c0.511,0.548,0.954,1.136,1.323,1.749  c0.342,0.57,0.625,1.176,0.844,1.8c0.226,0.644,0.386,1.319,0.476,2.007c0.094,0.716,0.114,1.463,0.066,2.22  c-0.052,0.788-0.18,1.605-0.384,2.431c-0.188,0.767-0.441,1.559-0.756,2.353c-0.325,0.819-0.722,1.657-1.174,2.49  c-0.469,0.857-0.993,1.708-1.606,2.6c-0.612,0.89-1.3,1.792-2.042,2.681c-0.763,0.914-1.597,1.832-2.476,2.728  c-0.896,0.913-1.869,1.834-2.895,2.737c-0.911,0.803-1.89,1.614-2.907,2.41c-2.18,1.705-4.572,3.362-7.11,4.925  c-2.428,1.494-4.988,2.905-7.616,4.196c-2.803,1.378-5.727,2.645-8.694,3.763c-2.948,1.11-5.932,2.074-8.87,2.863  c-1.544,0.416-3.094,0.788-4.604,1.108c-1.494,0.315-2.992,0.587-4.453,0.81c-1.439,0.218-2.867,0.39-4.24,0.511  c-1.346,0.118-2.683,0.191-3.972,0.216c-1.289,0.025-2.481,0.001-3.652-0.068c-1.148-0.067-2.256-0.182-3.293-0.338  c-1.008-0.148-1.984-0.346-2.899-0.583c-0.997-0.26-1.891-0.557-2.734-0.908c-0.809-0.337-1.55-0.72-2.202-1.138  c-0.635-0.406-1.198-0.85-1.67-1.321c-0.241-0.237-0.462-0.485-0.662-0.74c-0.008-0.01-0.014-0.02-0.021-0.03  c-0.194-0.248-0.37-0.503-0.523-0.764c-0.036-0.061-0.06-0.126-0.093-0.188c-0.138-0.259-0.265-0.521-0.368-0.792  C8.896,68.76,8.813,68.533,8.753,68.3c-0.061-0.234-0.128-0.467-0.189-0.7c0.367,0.304,0.756,0.599,1.188,0.873  c0.623,0.394,1.322,0.76,2.077,1.084c0.762,0.33,1.568,0.613,2.463,0.868c0.881,0.251,1.833,0.466,2.831,0.639  c1.016,0.176,2.086,0.308,3.179,0.396c1.11,0.092,2.289,0.141,3.501,0.146c0.081,0,0.162,0.001,0.244,0.001  c1.13,0,2.321-0.039,3.543-0.116c1.302-0.083,2.658-0.211,4.03-0.382c2.608-0.324,5.332-0.809,8.095-1.439  c2.772-0.636,5.598-1.424,8.397-2.342c2.788-0.915,5.576-1.969,8.286-3.133c2.685-1.154,5.3-2.42,7.771-3.763  c1.281-0.695,2.555-1.429,3.786-2.18c1.207-0.738,2.382-1.501,3.497-2.269c1.108-0.764,2.178-1.547,3.178-2.327  c1.023-0.799,1.948-1.569,2.83-2.354c0.868-0.774,1.696-1.565,2.461-2.353c0.75-0.772,1.45-1.555,2.086-2.326  c0.706-0.861,1.316-1.687,1.865-2.523c0.537-0.819,1.008-1.64,1.397-2.437c0.384-0.787,0.698-1.571,0.934-2.328  c0.236-0.748,0.398-1.49,0.486-2.202c0.087-0.703,0.104-1.395,0.05-2.059c-0.062-0.72-0.206-1.414-0.43-2.062  c-0.217-0.634-0.515-1.246-0.89-1.818c-0.375-0.577-0.842-1.122-1.375-1.625c-0.002-0.002-0.005-0.005-0.009-0.007  c-0.013-0.012-0.022-0.027-0.037-0.04c-0.005-0.003-0.009-0.006-0.013-0.008c-0.002-0.002-0.004-0.006-0.006-0.008l-0.005,0.002  c-0.006-0.006-0.008-0.015-0.015-0.021c-4.81-4.386-13.486-3.84-16.996-3.402c-5.476,0.684-11.198,2.472-16.546,5.171  c-5.495,2.771-10.293,6.37-13.875,10.408c-3.467,3.907-5.683,8.149-6.475,12.257l-0.241-0.67c-0.001-0.005-0.001-0.007-0.002-0.011  C28.698,46.111,33.72,40.06,36.814,37.087z M60.098,39.41c4.335-0.159,14.908-0.04,21.703,4.268  c-1.529,2.194-3.373,4.102-4.766,5.401c-3.573,3.339-7.697,6.252-12.978,9.17c-6.223,3.437-13.07,6.203-19.948,8.139  c-0.767-0.222-1.494-0.46-2.188-0.711c-0.14-0.051-0.285-0.099-0.422-0.152c-0.174-0.065-0.337-0.135-0.506-0.203  c-0.31-0.125-0.619-0.251-0.921-0.385c-0.175-0.077-0.345-0.158-0.516-0.238c-0.218-0.103-0.433-0.207-0.645-0.313  c-1.445-0.733-2.747-1.578-3.976-2.575c-1.501-1.27-2.702-2.692-3.592-4.219c-0.001-0.008-0.002-0.016-0.003-0.021  c0-0.007-0.001-0.014-0.002-0.021c-0.044-1.911,0.289-3.745,0.837-5.457c0.054-0.066,0.1-0.142,0.131-0.228  c0.218-0.593,0.473-1.163,0.735-1.729c0.151-0.323,0.306-0.646,0.477-0.969c0.034-0.066,0.071-0.129,0.105-0.194  c0.959-1.777,2.192-3.54,3.668-5.243C44.793,41.183,52.674,39.687,60.098,39.41z M39.608,41.303c0.49-0.471,0.994-0.936,1.52-1.392  c1.536-1.329,3.221-2.595,5.008-3.761c1.751-1.142,3.61-2.197,5.528-3.135c1.959-0.958,3.992-1.803,6.038-2.509  c2.093-0.72,4.205-1.297,6.281-1.716c1.971-0.398,3.911-0.652,5.764-0.754c0.946-0.053,1.88-0.065,2.775-0.034  c0.893,0.029,1.759,0.099,2.576,0.208c0.823,0.111,1.608,0.261,2.336,0.447c0.729,0.186,1.421,0.413,2.057,0.675  c0.634,0.262,1.219,0.56,1.74,0.889c0.483,0.304,0.923,0.64,1.309,0.999c0.004,0.003,0.011,0.005,0.015,0.009  c0.002,0.004,0.004,0.009,0.008,0.013c0,0,0,0.002,0.003,0.002c1.388,1.304,2.098,2.932,2.11,4.837c0,0,0,0,0,0  c0.017,2.113-0.818,4.257-1.998,6.236c-6.885-4.395-17.061-4.731-22.635-4.522C53.397,38.047,46.394,39.254,39.608,41.303z   M7.664,59.107C7.664,59.107,7.664,59.107,7.664,59.107c0.001-0.006,0.002-0.013,0.004-0.02h0c0.164-0.643,0.411-1.306,0.735-1.975  c0.329-0.679,0.727-1.35,1.217-2.05c0.481-0.688,1.045-1.391,1.673-2.086c0.631-0.698,1.315-1.379,2.093-2.081  c0.743-0.67,1.555-1.34,2.411-1.993c0.029-0.022,0.059-0.046,0.087-0.068c0.424-0.321,0.868-0.642,1.321-0.96  c0.093-0.065,0.187-0.131,0.279-0.195c0.442-0.306,0.895-0.61,1.359-0.91c0.068-0.044,0.136-0.087,0.204-0.131  c1.053-0.673,2.172-1.338,3.332-1.976c1.119-0.615,2.297-1.218,3.501-1.792c0,0,0,0,0.001,0c2.095-0.999,3.97-1.98,5.661-2.956  c-0.303,0.412-0.595,0.826-0.864,1.241c-0.525,0.809-0.991,1.632-1.384,2.446c-0.398,0.819-0.734,1.655-1,2.481  c-0.247,0.766-0.438,1.545-0.57,2.315c-0.142,0.828-0.215,1.663-0.218,2.483c-0.003,0.821,0.065,1.638,0.199,2.428l0,0  c0,0.001,0,0.003,0,0.003c0.001,0.004,0.001,0.009,0.002,0.013c0,0.001,0.001,0.003,0.001,0.004  c0.003,0.021,0.009,0.049,0.012,0.068c0,0.001,0,0.001,0,0.001c0,0.001,0,0.003,0,0.004c0,0.002,0.002,0.009,0.002,0.01  c0,0.002,0.001,0.003,0.001,0.004c0.144,0.81,0.361,1.614,0.648,2.394c0.29,0.788,0.658,1.567,1.093,2.316  c0.436,0.747,0.949,1.48,1.527,2.181c0.579,0.7,1.234,1.378,1.947,2.014c0.716,0.641,1.504,1.251,2.343,1.815  c0.777,0.523,1.614,1.021,2.49,1.478c0.123,0.063,0.254,0.121,0.379,0.184c0.248,0.126,0.503,0.247,0.759,0.366  c0.159,0.074,0.314,0.149,0.475,0.222c0.351,0.156,0.714,0.306,1.083,0.452c0.108,0.044,0.213,0.093,0.322,0.134  c0.032,0.013,0.065,0.023,0.097,0.036c0.128,0.048,0.262,0.094,0.393,0.142c-2.45,0.604-4.894,1.105-7.304,1.479  c-4.395,0.681-10.843,1.27-16.604,0.204c-3.151-0.582-5.716-1.615-7.417-2.99C7.757,64.062,6.986,61.796,7.664,59.107z   M92.829,51.629c-0.037,0.747-0.15,1.51-0.338,2.269c-0.191,0.778-0.462,1.567-0.809,2.345c-0.344,0.78-0.772,1.573-1.271,2.354  c-0.507,0.785-1.086,1.566-1.728,2.319c-0.645,0.758-1.369,1.513-2.15,2.243c-0.78,0.724-1.634,1.438-2.541,2.122  c-0.896,0.676-1.864,1.336-2.878,1.963c-1.952,1.205-4.09,2.29-6.352,3.229c-0.096,0.04-0.191,0.082-0.287,0.121  c-0.527,0.216-1.061,0.422-1.601,0.62c-0.346,0.127-0.698,0.247-1.05,0.366c-0.623,0.215-1.251,0.417-1.884,0.608  c-0.534,0.16-1.069,0.314-1.607,0.458c-0.312,0.082-0.623,0.166-0.936,0.243c-0.809,0.197-1.619,0.382-2.434,0.542  c-0.202,0.04-0.404,0.073-0.608,0.111c-0.733,0.135-1.47,0.255-2.207,0.358c-0.196,0.027-0.392,0.059-0.59,0.084  c-0.848,0.109-1.696,0.194-2.542,0.26c-0.231,0.018-0.465,0.031-0.696,0.046c-0.785,0.05-1.567,0.083-2.345,0.093  c-0.129,0.002-0.258,0.009-0.385,0.01c-1.222,0.004-2.454-0.038-3.65-0.132l0,0c-0.001,0-0.001,0-0.001,0  c-1.013-0.077-2.019-0.099-3.02-0.093c1.188-0.369,2.378-0.756,3.562-1.175c1.606-0.568,3.205-1.181,4.751-1.819  c1.731-0.713,3.472-1.49,5.17-2.308c1.53-0.736,3.036-1.511,4.479-2.302c1.454-0.796,2.884-1.631,4.253-2.481  c1.503-0.934,2.98-1.917,4.391-2.925c1.238-0.885,2.447-1.808,3.597-2.743c1.259-1.024,2.457-2.076,3.558-3.123  s2.13-2.109,3.055-3.156c0.924-1.044,1.775-2.101,2.528-3.142c0.741-1.024,1.412-2.063,1.987-3.088  c0.553-0.979,1.025-1.961,1.413-2.921c0.163,1.642,0.396,3.241,0.721,4.804c0,0,0,0,0,0.001c0,0.007,0.003,0.014,0.005,0.021  l0.32,1.548c0,0.006,0.002,0.013,0.002,0.019c0.115,0.717,0.154,1.458,0.121,2.204C92.831,51.597,92.831,51.613,92.829,51.629z"></path></svg></g><g transform="matrix(2.7273,0,0,2.7273,168.712,0.1059)"><svg width="104.894" height="93.07791237554014" viewBox="-2.447,3.4620876244598406,104.894,93.07791237554014"><defs><linearGradient x1="0" y1="0.5" x2="1" y2="0.5" id="linearGradientSk9tps96v2ol"><stop offset="3.79%" stop-color="#083b66"></stop><stop offset="63.98%" stop-color="#4bc4d1"></stop><stop offset="100%" stop-color="#4bc4d1"></stop></linearGradient></defs><path fill="url('#linearGradientSk9tps96v2ol')" d="M25.531,23.026c0-6.345-5.144-11.489-11.489-11.489S2.553,16.681,2.553,23.026  c0,6.346,5.144,11.49,11.489,11.49S25.531,29.372,25.531,23.026z M60.877,31.503c6.346,0,11.49-5.144,11.49-11.489  c0-6.345-5.145-11.489-11.49-11.489c-6.345,0-11.488,5.144-11.488,11.489C49.389,26.359,54.532,31.503,60.877,31.503z   M40.851,67.329c0,0,3.404-15.697-2.554-17.21c-5.499-1.397-9.01,0-9.01,0v-3.404l-10.564-3.688l17.021,3.688  c0,0,7.659,3.688,10.213,0c2.553-3.688,0-2.837-3.121-3.688c-3.12-0.851-2.27-2.27-2.27-2.27s-3.688,1.986-4.538,0.851  c-0.852-1.135,5.39-3.404,5.39-3.404s-0.852-2.27-5.39,0c0,0-4.681-4.255-13.901-4.255c0,0-2.553,3.688-12.198,2.27  c0,0,4.539,10.212,4.255,17.872c-0.283,7.66,1.702,11.064,7.377,17.307c0,0,0.283,4.822-5.816,7.092c0,0-5.532,1.985-2.837,6.809  s3.267,6.241,8.654,6.241c5.389,0,8.654-6.241,0-6.241c0,0,9.644-7.376,7.941-15.32c-1.702-7.942-2.553-9.928-2.553-9.928  l7.376-3.121c0,0,0,8.227,0,13.333s1.135,9.361,6.524,5.106s9.078-6.524,7.376-9.646C46.524,62.602,40.851,67.329,40.851,67.329z   M34.042,40.474c0,0-1.418,0-14.185-2.837C19.857,37.637,29.786,36.786,34.042,40.474z M74.705,44.823c0,0,0.541-3.853-0.474-10.875  c-0.997-6.906-7.187-2.081-7.187-2.081s-3.877,3.12-10.496,1.04c0,0-1.23,5.012-15.509,3.688c0,0,1.039,0.284,1.891,1.608  c0,0-5.765,2.341-5.769,2.742c-0.009,1.003,4.634-1.372,4.634-1.372s-1.134,1.655,0.096,2.223c1.229,0.567,5.295,0.567,5.768,2.553  c0,0-0.013-1.702,0.986-1.513s14.522,1.049,19.629-3.826c0,0-1.798,3.258-6.147,4.015l-0.189,2.648c0,0-8.037,0.945-11.252,7.186  c0,0-4.445,1.513-2.459,4.539c0,0-3.215,1.797-1.229,2.837c1.986,1.039,4.634,1.039,4.634,1.039s3.31,3.972,4.444,4.634  c0,0-5.768,7.566-0.852,10.592c4.917,3.025,9.078-9.646,7.187-11.82c-1.891-2.175-2.363-3.688-2.363-3.688  c-1.702-2.223-3.972-5.012-3.972-5.012c3.175,0.686,3.972,5.012,3.972,5.012s3.121,0.095,3.783-1.323l-1.514-2.085h1.419  c0,0,3.404,9.934,13.711,5.157c0,0-0.945,2.223-5.012,2.506c0,0,2.27,2.081-0.852,6.053c-3.12,3.972-7.376,8.889-6.052,10.401  c1.324,1.514,5.769,8.605,10.308,7.66s-1.985-8.983-1.985-8.983s3.782-4.16,5.769-8.417c1.985-4.255,1.04-7.658,0-10.495  c0,0,2.08-1.229,3.972-3.782c1.891-2.554,5.2-4.918,6.809-4.823C90.402,52.861,87.327,45.968,74.705,44.823z M50.667,39.333  c-4.444,0.336-7.357,0.478-7.357,0.478s3.594-1.607,7.849-1.607s13.428-2.932,13.428-2.932  C62.506,36.88,55.109,38.998,50.667,39.333z M58.917,53.25c-3.5-3.121-6.437-0.861-6.437-0.861c5.675-5.201,10.12,3.593,10.12,3.593  S62.415,56.37,58.917,53.25z M82.539,19.41c6.597,6.59,14.908,0.956,14.908,0.956c-3.057,1.724-10.117-4.562-10.117-4.562  l3.231,0.721c-1.92-3.539-8.892-6.393-8.892-6.393l1.909-0.904c-7.273-3.108-11.591,4.247-11.591,4.247  c1.059,1.105,1.236,2.5,1.236,2.5S75.941,12.821,82.539,19.41z"></path></svg></g><g transform="matrix(0.8913,0,0,0.8913,0.3623,365.2165)"><svg width="396.6666666666667" height="185" style="overflow: visible;"><defs><linearGradient x1="0" y1="0.5" x2="1" y2="0.5" id="linearGradientSk9tps96v2ou"><stop offset="0%" stop-color="#083b66"></stop><stop offset="100%" stop-color="#083b66"></stop></linearGradient></defs><g><path d="M-85.45-69.7L-85.45-69.7Q-89.45-67.1 -96.7-52.9Q-103.95-38.7 -109.6-23.25Q-115.25-7.8 -115.25-1.8L-115.25-1.8Q-115.25-0.5 -115.05 0L-115.05 0L-121.35 0Q-121.65-5.8 -123.4-10.15Q-125.15-14.5 -126.05-16.65Q-126.95-18.8 -129.15-23.8Q-131.35-28.8 -133.05-32.8L-133.05-32.8Q-138.25-44.9 -138.95-53.4L-138.95-53.4Q-145.55-38.7 -151.95-22.3Q-158.35-5.9 -158.35-0.9L-158.35-0.9Q-158.35-0.2 -158.25 0L-158.25 0L-167.45 0Q-161.75-14.6 -151.15-38.5Q-140.55-62.4 -138.25-66.9L-138.25-66.9Q-147.35-66.9 -156-63.3Q-164.65-59.7 -166.15-54.9L-166.15-54.9Q-166.25-54.6 -166.55-54.6L-166.55-54.6Q-167.35-54.6 -167.35-55.9L-167.35-55.9Q-167.35-56.1 -166.55-58.6Q-165.75-61.1 -163.5-63.8Q-161.25-66.5 -158.25-67.8L-158.25-67.8Q-153.35-69.8 -146.15-69.8L-146.15-69.8L-129.25-69.8Q-130.65-67.5 -130.65-64.2L-130.65-64.2Q-130.65-56.8 -124.95-43.4L-124.95-43.4Q-119.75-30.9 -118.8-27.45Q-117.85-24 -117.6-22.9Q-117.35-21.8 -117.25-20.3Q-117.15-18.8 -117.05-18.4L-117.05-18.4Q-115.75-21.6 -94.75-69.8L-94.75-69.8Q-94.55-70.3 -92.9-70.3Q-91.25-70.3 -88.55-70Q-85.85-69.7 -85.45-69.7ZM-63.65-26L-63.65-26Q-63.05-26 -63.05-24.05Q-63.05-22.1 -64.65-19.4Q-66.25-16.7 -67.8-14.3Q-69.35-11.9 -71.95-8.7Q-74.55-5.5 -77.05-3.6L-77.05-3.6Q-83.35 1 -89.7 1Q-96.05 1 -99.95-2.25Q-103.85-5.5 -103.85-12.2L-103.85-12.2Q-103.85-22.4 -96.35-31.1Q-88.85-39.8 -78.85-39.8L-78.85-39.8Q-74.35-39.8 -71.65-37.45Q-68.95-35.1 -68.95-31.8L-68.95-31.8Q-68.95-26.2 -74.25-22.8Q-79.55-19.4 -86.75-19.4L-86.75-19.4Q-90.95-19.4 -92.95-20.5L-92.95-20.5Q-94.85-15.4 -94.85-11.5L-94.85-11.5Q-94.85-3.1 -87.75-3.1L-87.75-3.1Q-83.55-3.1 -79.1-6.35Q-74.65-9.6 -71.5-13.65Q-68.35-17.7 -64.35-25.3L-64.35-25.3Q-63.95-26 -63.65-26ZM-74.25-33.9L-74.25-33.9Q-74.25-36.8 -77.05-36.8L-77.05-36.8Q-80.95-36.8 -85.75-32Q-90.55-27.2 -90.55-24.2L-90.55-24.2Q-90.55-22.2 -86.75-22.2Q-82.95-22.2 -78.8-25.9Q-74.65-29.6 -74.25-33.9ZM-41.050000000000004-40.2L-41.050000000000004-40.2L-35.95-40.1L-34.95-40.1Q-36.45-39 -39.2-33.6Q-41.95-28.2 -43.300000000000004-25.45Q-44.650000000000006-22.7 -46.300000000000004-18.05Q-47.95-13.4 -47.95-10.5Q-47.95-7.6 -45.95-7.6L-45.95-7.6Q-44.650000000000006-7.7 -42.300000000000004-9.45Q-39.95-11.2 -38.400000000000006-13.15Q-36.85-15.1 -35-18.15Q-33.150000000000006-21.2 -31.800000000000004-23.45Q-30.450000000000003-25.7 -30.25-25.7L-30.25-25.7Q-29.550000000000004-25.7 -29.550000000000004-23.85Q-29.550000000000004-22 -30.550000000000004-20.3L-30.550000000000004-20.3Q-34.85-13.2 -37.650000000000006-9.4Q-40.45-5.6 -44.400000000000006-2.45Q-48.35 0.7 -51.550000000000004 0.7L-51.550000000000004 0.7Q-57.25 0.7 -57.25-7.7L-57.25-7.7Q-57.25-13.4 -55.050000000000004-20.6Q-52.85-27.8 -48.550000000000004-34.5L-48.550000000000004-34.5Q-52.050000000000004-31.7 -55.550000000000004-31.7L-55.550000000000004-31.7Q-56.650000000000006-31.7 -57.85-32.2L-57.85-32.2Q-64.95-18.2 -65.5-18.2Q-66.05-18.2 -66.05-19.85Q-66.05-21.5 -64.8-24.45Q-63.550000000000004-27.4 -62.1-30.1Q-60.650000000000006-32.8 -60.550000000000004-33.1L-60.550000000000004-33.1Q-64.15-34.9 -64.15-38.9L-64.15-38.9Q-64.15-40.9 -62.900000000000006-42.5Q-61.650000000000006-44.1 -59.45-44.1Q-57.25-44.1 -55.85-42.7L-55.85-42.7Q-56.050000000000004-42.1 -56.050000000000004-40.9L-56.050000000000004-40.9Q-56.050000000000004-38.2 -54.1-36.65Q-52.150000000000006-35.1 -49.35-35.1L-49.35-35.1Q-48.550000000000004-35.1 -48.150000000000006-35.2L-48.150000000000006-35.2Q-44.650000000000006-40.2 -41.050000000000004-40.2ZM 22.25-65.4L 22.25-65.4Q 18.949999999999996-63  13.600000000000001-51.95Q 8.25-40.9  4.149999999999999-28.65Q 0.04999999999999716-16.4  0.04999999999999716-10.9L 0.04999999999999716-10.9Q 0.04999999999999716-7.7  1.75-7.7Q 3.4499999999999957-7.7  6-9.9Q 8.549999999999997-12.1  9.649999999999999-13.6Q 10.75-15.1  12.600000000000001-18.15Q 14.449999999999996-21.2  15.799999999999997-23.45Q 17.15-25.7  17.35-25.7L 17.35-25.7Q 18.049999999999997-25.7  18.049999999999997-23.8L 18.049999999999997-23.8Q 17.949999999999996-20.3  9.75-9.2L 9.75-9.2Q 7.049999999999997-5.6  3.25-2.5Q-0.5500000000000043 0.6 -3.6499999999999986 0.6L-3.6499999999999986 0.6Q-8.950000000000003 0.6 -8.950000000000003-7.3L-8.950000000000003-7.3Q-8.950000000000003-13.1 -6.050000000000001-22.2L-6.050000000000001-22.2Q-10.650000000000002-13.1 -16.55-6.4Q-22.450000000000003 0.3 -28.35 0.3L-28.35 0.3Q-35.050000000000004 0.3 -35.050000000000004-8.9L-35.050000000000004-8.9Q-35.050000000000004-15.9 -32-23.1Q-28.950000000000003-30.3 -23.25-35.35Q-17.55-40.4 -10.900000000000002-40.4Q-4.25-40.4 -1.75-36L-1.75-36Q 1.0499999999999972-41.5  4-48.7Q 6.949999999999996-55.9  7.899999999999999-58.05Q 8.850000000000001-60.2  9.299999999999997-61.2Q 9.75-62.2  10.449999999999996-63.1L 10.449999999999996-63.1Q 11.549999999999997-64.5  13.100000000000001-64.85Q 14.649999999999999-65.2  18.1-65.25Q 21.549999999999997-65.3  22.25-65.4ZM-2.25-34.8L-2.25-34.8Q-3.450000000000003-36.6 -6.25-36.6L-6.25-36.6Q-10.75-36.6 -15.3-32.05Q-19.85-27.5 -22.6-21.55Q-25.35-15.6 -25.35-11.1L-25.35-11.1Q-25.35-8 -22.950000000000003-8L-22.950000000000003-8Q-14.850000000000001-8 -2.25-34.8ZM 53.599999999999994-71.6Q 62.849999999999994-71.6  66.85-68.6Q 70.85-65.6  70.85-61.35Q 70.85-57.1  68-53.45Q 65.14999999999999-49.8  60.05-49.8Q 54.95-49.8  54.95-54.1L 54.95-54.1Q 54.95-54.5  55.14999999999999-55.7L 55.14999999999999-55.7Q 57.849999999999994-55.7  59.849999999999994-57.8Q 61.849999999999994-59.9  61.849999999999994-62.4Q 61.849999999999994-64.9  59.45-66.5Q 57.05-68.1  53.64999999999999-68.1L 53.64999999999999-68.1Q 47.849999999999994-68.1  44.05-64.6Q 40.25-61.1  40.25-56.4L 40.25-56.4Q 40.25-53.9  42.05-50.9Q 43.849999999999994-47.9  45.5-46.15Q 47.14999999999999-44.4  50.89999999999999-40.95Q 54.64999999999999-37.5  55.349999999999994-36.8L 55.349999999999994-36.8Q 62.95-29.2  62.95-20.25Q 62.95-11.3  54.849999999999994-4.65Q 46.75 2  35.449999999999996 2L 35.449999999999996 2Q 26.249999999999996 2  20.599999999999994-1Q 14.949999999999996-4  14.949999999999996-10.4L 14.949999999999996-10.4Q 14.949999999999996-13.9  17.249999999999996-16.8Q 19.549999999999997-19.7  23.799999999999997-19.7Q 28.049999999999997-19.7  29.549999999999997-16.7L 29.549999999999997-16.7Q 26.049999999999997-13.9  26.049999999999997-9.95Q 26.049999999999997-6  28.699999999999996-3.85Q 31.349999999999998-1.7  35.64999999999999-1.7L 35.64999999999999-1.7Q 41.64999999999999-1.7  46.2-6Q 50.75-10.3  50.75-16.85Q 50.75-23.4  42.14999999999999-32.5L 42.14999999999999-32.5Q 42.05-32.7  38.64999999999999-36.25Q 35.25-39.8  33-43.5Q 30.749999999999996-47.2  30.749999999999996-52.3L 30.749999999999996-52.3Q 30.749999999999996-61  37.55-66.3Q 44.349999999999994-71.6  53.599999999999994-71.6ZM 96.65-57.3L 96.65-57.3Q 91.75000000000001-53.9  85.65-39.9L 85.65-39.9L 95.75000000000001-39.9L 95.85000000000001-39.8Q 95.85000000000001-39.3  94.75000000000001-38.05Q 93.65-36.8  92.85000000000001-36.8L 92.85000000000001-36.8L 84.25000000000001-36.8Q 76.35000000000001-17.2  76.35000000000001-11.6L 76.35000000000001-11.6Q 76.35000000000001-7.8  78.75000000000001-7.8L 78.75000000000001-7.8Q 82.25000000000001-7.8  86.95000000000002-13.8L 86.95000000000002-13.8Q 88.05000000000001-15.1  89.85000000000001-18.2L 89.85000000000001-18.2Q 94.45000000000002-25.6  94.65-25.6L 94.65-25.6Q 95.25000000000001-25.6  95.25000000000001-24L 95.25000000000001-24Q 95.15-20.2  86.95000000000002-9.2L 86.95000000000002-9.2Q 84.25000000000001-5.6  80.45000000000002-2.5Q 76.65 0.6  73.55000000000001 0.6L 73.55000000000001 0.6Q 67.85000000000001 0.6  67.85000000000001-7.4L 67.85000000000001-7.4Q 67.85000000000001-14.1  71.05000000000001-22.8L 71.05000000000001-22.8L 71.05000000000001-22.9Q 69.15-19.4  67.80000000000001-17.7Q 66.45000000000002-16  66.25000000000001-16L 66.25000000000001-16Q 65.85000000000001-16  65.85000000000001-17.25Q 65.85000000000001-18.5  67.20000000000002-21.3Q 68.55000000000001-24.1  70.9-28.6Q 73.25000000000001-33.1  74.75000000000001-36.8L 74.75000000000001-36.8L 68.05000000000001-36.8Q 67.75000000000001-36.8  67.75000000000001-37.25Q 67.75000000000001-37.7  68.50000000000001-38.8Q 69.25000000000001-39.9  69.65-39.9L 69.65-39.9L 77.25000000000001-39.9Q 84.45000000000002-57.2  91.85000000000001-57.2L 91.85000000000001-57.2Q 96.15-57.2  96.65-57.3ZM 138.65-24.6L 138.65-24.6Q 138.95-25.2  139.25-25.2L 139.25-25.2Q 139.85-25.2  139.85-23.7L 139.85-23.7Q 139.85-18.9  136-15.75Q 132.15-12.6  128.8-12.6Q 125.45-12.6  123.05000000000001-14.5L 123.05000000000001-14.5Q 119.45-7.4  114.5-3.3Q 109.55000000000001 0.8  101.75 0.8L 101.75 0.8Q 96.75 0.8  93.60000000000001-2.25Q 90.45-5.3  90.45-11.55Q 90.45-17.8  93.3-24.45Q 96.15-31.1  101.9-35.9Q 107.65-40.7  114.75-40.7L 114.75-40.7Q 126.65-40.7  126.65-28.1L 126.65-28.1Q 126.65-23.3  124.55000000000001-18L 124.55000000000001-18Q 126.05000000000001-15.9  128.85-15.9L 128.85-15.9Q 134.05-15.9  138.65-24.6ZM 121.35-30.8L 121.95-30.8Q 121.55000000000001-36.1  117.15-36.1L 117.15-36.1Q 110.25-36.1  103.65-22.7L 103.65-22.7Q 100.05-15.3  100.05-9.3Q 100.05-3.3  105.25-3L 105.25-3Q 109.55000000000001-3  113.2-7.55Q 116.85-12.1  119.35-17.6L 119.35-17.6Q 115.95-20.5  115.95-24.9L 115.95-24.9Q 115.95-27.6  117.4-29.2Q 118.85-30.8  121.35-30.8L 121.35-30.8ZM 179.15000000000003-21.4L 179.15000000000003-21.4Q 173.15000000000003-10.4  166.15000000000003-4.3Q 159.15000000000003 1.8  149.55 1.8Q 139.95000000000002 1.8  138.75000000000003-3.1L 138.75000000000003-3.1L 133.15000000000003 14.4Q 131.15000000000003 20.3 130.10000000000002 22.05Q 129.05 23.8 127.75000000000003 24.3Q 126.45000000000002 24.8 124.45000000000002 24.8L 124.45000000000002 24.8L 119.65000000000002 24.8Q 122.25000000000003 21 130.15000000000003-1.45Q 138.05-23.9  140.60000000000002-30.1Q 143.15000000000003-36.3  144.35000000000002-37.6L 144.35000000000002-37.6Q 146.75000000000003-40  152.65000000000003-40L 152.65000000000003-40L 155.65000000000003-40Q 152.75000000000003-38  147.75000000000003-28L 147.75000000000003-28Q 157.05-40.4  164.15000000000003-40.4L 164.15000000000003-40.4Q 170.85000000000002-40.4  170.85000000000002-31.2L 170.85000000000002-31.2Q 170.85000000000002-23.6  166.05-15.6Q 161.25000000000003-7.6  154.75000000000003-3.2L 154.75000000000003-3.2L 155.55-3.2Q 159.65000000000003-3.2  163.90000000000003-6.5Q 168.15000000000003-9.8  171.25000000000003-13.8L 171.25000000000003-13.8Q 172.95000000000002-16  176.05-21.25Q 179.15000000000003-26.5  179.35000000000002-26.5L 179.35000000000002-26.5Q 180.15000000000003-26.5  180.15000000000003-24.8Q 180.15000000000003-23.1  179.15000000000003-21.4ZM 159.65000000000003-31.9L 159.65000000000003-31.9Q 159.35000000000002-32  158.75000000000003-32L 158.75000000000003-32Q 156.65000000000003-32  154.15000000000003-30L 154.15000000000003-30Q 150.05-26.8  145.45000000000002-19.4Q 140.85000000000002-12  140.85000000000002-7.3Q 140.85000000000002-2.6  143.75000000000003-2.6L 143.75000000000003-2.6Q 148.95000000000002-2.6  155.05-12.9Q 161.15000000000003-23.2  161.15000000000003-29L 161.15000000000003-29Q 161.15000000000003-31.5  159.65000000000003-31.9Z" data-textpath="NerdStop" data-text-anchor="middle" data-font-size="100" data-letterspacing="0" data-side="left" data-offset="0" data-dx="0" data-dy="93.75" data-xmlspace="preserve" data-href="" data-font="Playball" data-font-src="/Content/clientfonts/playball.woff" data-font-scale="contain" transform="translate(297.5,93.75)" data-x="297.5" data-y="0" fill="url('#linearGradientSk9tps96v2ou')"></path></g></svg></g><g transform="matrix(2.7273,0,0,2.7273,149.8938,202.2877)"><svg width="98.89191394793217" height="65.78623783232399" viewBox="0.5553726656778739,17.11476216767599,98.89191394793217,65.78623783232399"><defs><linearGradient x1="0" y1="0.5" x2="1" y2="0.5" id="linearGradientSk9tps96v2oz"><stop offset="0%" stop-color="#ffffff"></stop><stop offset="100%" stop-color="#ffffff"></stop></linearGradient></defs><path fill="url('#linearGradientSk9tps96v2oz')" d="M94.428,50.521c-0.021-0.474-0.062-0.944-0.136-1.406v0c0-0.001,0-0.003,0-0.004  c-0.002-0.008-0.004-0.02-0.006-0.03c0,0,0,0,0-0.001c-0.003-0.011-0.005-0.021-0.007-0.033c0-0.001,0-0.003,0-0.004l-0.013-0.057  c-0.033-0.201-0.07-0.401-0.114-0.6c0-0.001,0-0.002,0-0.002c0-0.002-0.002-0.009-0.004-0.013c0-0.002,0-0.004,0-0.006v0  c-0.005-0.015-0.007-0.028-0.011-0.044c0-0.002,0-0.004,0-0.005c-0.064-0.283-0.127-0.565-0.186-0.85v0  c-0.686-3.292-0.989-6.727-0.936-10.5c0-0.011-0.006-0.02-0.006-0.03c0.002-0.037,0.006-0.076,0.008-0.113  c0.002-0.124-0.031-0.238-0.079-0.344c0-0.012,0.002-0.026,0.002-0.039c-0.002-0.594-0.056-1.176-0.135-1.749l0.072-0.018  l-0.075,0.005c-0.004-0.021-0.006-0.043-0.008-0.064l0.07-0.011c-0.017-0.114-0.058-0.217-0.116-0.309  c-0.009-0.057-0.013-0.116-0.023-0.172c-0.14-0.736-0.348-1.458-0.62-2.146c-0.268-0.672-0.601-1.327-0.994-1.949  c-0.358-0.562-0.773-1.1-1.229-1.61c-0.02-0.027-0.027-0.058-0.051-0.083c-0.002-0.003-0.006-0.004-0.008-0.007  c-0.002-0.002-0.002-0.004-0.004-0.006c0-0.001-0.002-0.002-0.005-0.004c-0.002-0.002-0.002-0.004-0.004-0.006  c0-0.002-0.004-0.004-0.006-0.005c0,0,0-0.001,0-0.002c-0.847-0.917-1.845-1.737-2.982-2.462c-0.004-0.003-0.008-0.006-0.015-0.009  c0,0,0-0.001-0.002-0.001c-0.517-0.33-1.069-0.637-1.645-0.925c-0.031-0.016-0.058-0.035-0.089-0.05  c-0.038-0.019-0.077-0.035-0.115-0.053c-0.212-0.103-0.431-0.202-0.649-0.299c-0.136-0.06-0.27-0.121-0.409-0.179  c-0.21-0.088-0.425-0.172-0.642-0.256c-0.098-0.037-0.191-0.079-0.29-0.115c-0.033-0.012-0.068-0.021-0.102-0.033  c-0.096-0.035-0.186-0.073-0.283-0.106c-0.029-0.011-0.059-0.005-0.088-0.012c-0.509-0.177-1.023-0.353-1.557-0.501  c-0.759-0.211-1.561-0.397-2.386-0.553c-1.601-0.304-3.312-0.502-5.089-0.586c-1.729-0.084-3.536-0.06-5.379,0.068  c-0.116,0.008-0.237,0.025-0.356,0.035c-0.019,0-0.035-0.009-0.054-0.007c-0.786,0.061-1.575,0.145-2.367,0.242  c-0.125,0.016-0.252,0.036-0.377,0.052c-0.757,0.099-1.516,0.214-2.271,0.345c-0.121,0.021-0.24,0.033-0.36,0.055  c-0.111,0.02-0.22,0.047-0.33,0.068c-0.779,0.144-1.559,0.303-2.336,0.48c-0.094,0.022-0.188,0.04-0.283,0.062  c-0.875,0.204-1.748,0.433-2.615,0.677c-0.068,0.019-0.138,0.033-0.204,0.053c-0.123,0.035-0.246,0.079-0.369,0.115  c-0.748,0.218-1.489,0.451-2.228,0.697c-0.186,0.062-0.371,0.121-0.557,0.185c-0.896,0.309-1.785,0.637-2.662,0.986  c-0.016,0.006-0.032,0.011-0.048,0.018c-0.044,0.017-0.085,0.038-0.129,0.056c-0.849,0.341-1.684,0.703-2.507,1.08  c-0.03,0.014-0.06,0.027-0.089,0.041c-3.05,1.4-5.913,3.035-8.472,4.861c-0.015,0.009-0.031,0.01-0.046,0.02l-0.194,0.14  c-0.018,0.013-0.026,0.032-0.042,0.046c-0.839,0.608-1.655,1.232-2.422,1.88c0,0,0,0-0.001,0.001s-0.001,0-0.002,0.001  c-2.74,2.315-6.524,4.609-11.57,7.014c0,0,0,0-0.001,0c-1.232,0.587-2.438,1.205-3.583,1.834c-0.529,0.292-1.047,0.59-1.558,0.891  c-0.008,0.004-0.018,0.004-0.025,0.009c-0.068,0.04-0.14,0.083-0.208,0.125c-0.014,0.008-0.027,0.016-0.041,0.024  c-4.195,2.49-9.491,6.321-12.297,11.033c-0.002,0.004-0.006,0.006-0.008,0.01l-0.043,0.073c-0.206,0.351-0.401,0.705-0.578,1.065  c-0.026,0.054-0.043,0.106-0.069,0.16c-0.007,0.012-0.019,0.02-0.025,0.032c0,0.001-0.033,0.067-0.034,0.068v0.001  c-0.368,0.748-0.638,1.463-0.833,2.186c-0.005,0.013-0.008,0.023-0.013,0.036c0,0.001,0,0.001,0,0.001  c0,0.001-0.001,0.004-0.001,0.005c-0.001,0.003-0.001,0.006-0.002,0.009c-0.009,0.023-0.019,0.048-0.023,0.066  c-0.001,0.005,0,0.01-0.001,0.016c-0.002,0.008-0.007,0.019-0.008,0.026c-0.003,0.015,0.002,0.026,0,0.041  c-0.176,0.704-0.275,1.399-0.284,2.07c-0.005,0.4,0.02,0.793,0.071,1.163c0.039,0.29,0.102,0.576,0.176,0.859  c-0.019,0.112-0.018,0.229,0.015,0.345c0.003,0.014,0.01,0.026,0.014,0.039c0.001,0.005,0,0.01,0.001,0.014  c0.478,1.685,0.935,3.374,1.371,5.07c0.05,0.197,0.127,0.387,0.194,0.581c0.007,0.035,0.002,0.071,0.015,0.107  c0.035,0.1,0.08,0.194,0.119,0.292c0.019,0.05,0.038,0.098,0.058,0.146c0.736,1.765,2.067,3.28,3.977,4.507  c0,0.001,0.002,0.001,0.003,0.001c0.049,0.031,0.102,0.061,0.154,0.091c0.011,0.008,0.018,0.021,0.029,0.028  c0.005,0.003,0.044,0.028,0.069,0.044c0.001,0.001,0.002,0.002,0.003,0.003c0.344,0.221,0.71,0.431,1.09,0.63  c0.007,0.005,0.011,0.012,0.019,0.016c0.094,0.051,0.196,0.089,0.292,0.137c0.223,0.111,0.441,0.228,0.674,0.33  c0.074,0.034,0.155,0.062,0.23,0.094c0.282,0.123,0.569,0.238,0.859,0.35c0.087,0.033,0.177,0.065,0.266,0.098  c3.522,1.293,7.581,1.74,11.447,1.74c1.449,0,2.868-0.062,4.22-0.161c0.019,0,0.037-0.001,0.055-0.003  c0.034-0.002,0.068-0.005,0.103-0.008c0.048-0.003,0.095-0.008,0.143-0.012c0.223-0.017,0.445-0.034,0.667-0.053  c0.008-0.001,0.014-0.006,0.022-0.007c2.012-0.178,3.847-0.429,5.354-0.678c0.005-0.001,0.01,0,0.014-0.001l0.466-0.07  c4.785-0.724,9.307-1.407,14.074-1.043l0,0c1.175,0.091,2.378,0.137,3.582,0.137c0.067,0,0.134,0,0.198,0  c0.04,0,0.079-0.003,0.119-0.003c0.006,0,0.01,0.003,0.017,0.003c0.002,0,0.004,0,0.006,0c0.086-0.001,0.175-0.01,0.263-0.011  c0.803-0.011,1.608-0.045,2.411-0.096c0.241-0.015,0.481-0.029,0.723-0.048c0.14-0.011,0.279-0.016,0.419-0.027  c0.74-0.062,1.482-0.146,2.226-0.242c0.178-0.023,0.354-0.051,0.531-0.076c0.807-0.112,1.615-0.244,2.424-0.394  c0.165-0.031,0.327-0.058,0.492-0.09c0.733-0.144,1.467-0.299,2.194-0.475c0.142-0.033,0.279-0.073,0.421-0.109  c0.272-0.067,0.546-0.141,0.818-0.213c0.623-0.165,1.242-0.341,1.857-0.528c0.527-0.16,1.05-0.329,1.571-0.505  c0.462-0.156,0.923-0.312,1.377-0.481c0.533-0.194,1.059-0.4,1.58-0.612c0.041-0.017,0.085-0.031,0.127-0.049  c0.096-0.039,0.188-0.082,0.281-0.122c1.483-0.616,2.934-1.275,4.305-2.015c4.177-2.25,7.331-4.684,9.926-7.658  c2.095-2.403,4.516-6.103,4.739-10.505c0-0.021,0.004-0.044,0.006-0.066c0-0.012-0.002-0.022,0-0.034  c0.015-0.355,0.021-0.715,0.004-1.08C94.436,50.544,94.428,50.534,94.428,50.521z M36.814,37.087  c5.171-4.969,11.511-8.002,15.918-9.672c6.08-2.303,12.423-3.549,18.346-3.605c4.43-0.037,12.565,0.607,17.085,5.422  c0.002,0.003,0.007,0.003,0.009,0.006c0.006,0.008,0.015,0.017,0.019,0.022v0c0.511,0.548,0.954,1.136,1.323,1.749  c0.342,0.57,0.625,1.176,0.844,1.8c0.226,0.644,0.386,1.319,0.476,2.007c0.094,0.716,0.114,1.463,0.066,2.22  c-0.052,0.788-0.18,1.605-0.384,2.431c-0.188,0.767-0.441,1.559-0.756,2.353c-0.325,0.819-0.722,1.657-1.174,2.49  c-0.469,0.857-0.993,1.708-1.606,2.6c-0.612,0.89-1.3,1.792-2.042,2.681c-0.763,0.914-1.597,1.832-2.476,2.728  c-0.896,0.913-1.869,1.834-2.895,2.737c-0.911,0.803-1.89,1.614-2.907,2.41c-2.18,1.705-4.572,3.362-7.11,4.925  c-2.428,1.494-4.988,2.905-7.616,4.196c-2.803,1.378-5.727,2.645-8.694,3.763c-2.948,1.11-5.932,2.074-8.87,2.863  c-1.544,0.416-3.094,0.788-4.604,1.108c-1.494,0.315-2.992,0.587-4.453,0.81c-1.439,0.218-2.867,0.39-4.24,0.511  c-1.346,0.118-2.683,0.191-3.972,0.216c-1.289,0.025-2.481,0.001-3.652-0.068c-1.148-0.067-2.256-0.182-3.293-0.338  c-1.008-0.148-1.984-0.346-2.899-0.583c-0.997-0.26-1.891-0.557-2.734-0.908c-0.809-0.337-1.55-0.72-2.202-1.138  c-0.635-0.406-1.198-0.85-1.67-1.321c-0.241-0.237-0.462-0.485-0.662-0.74c-0.008-0.01-0.014-0.02-0.021-0.03  c-0.194-0.248-0.37-0.503-0.523-0.764c-0.036-0.061-0.06-0.126-0.093-0.188c-0.138-0.259-0.265-0.521-0.368-0.792  C8.896,68.76,8.813,68.533,8.753,68.3c-0.061-0.234-0.128-0.467-0.189-0.7c0.367,0.304,0.756,0.599,1.188,0.873  c0.623,0.394,1.322,0.76,2.077,1.084c0.762,0.33,1.568,0.613,2.463,0.868c0.881,0.251,1.833,0.466,2.831,0.639  c1.016,0.176,2.086,0.308,3.179,0.396c1.11,0.092,2.289,0.141,3.501,0.146c0.081,0,0.162,0.001,0.244,0.001  c1.13,0,2.321-0.039,3.543-0.116c1.302-0.083,2.658-0.211,4.03-0.382c2.608-0.324,5.332-0.809,8.095-1.439  c2.772-0.636,5.598-1.424,8.397-2.342c2.788-0.915,5.576-1.969,8.286-3.133c2.685-1.154,5.3-2.42,7.771-3.763  c1.281-0.695,2.555-1.429,3.786-2.18c1.207-0.738,2.382-1.501,3.497-2.269c1.108-0.764,2.178-1.547,3.178-2.327  c1.023-0.799,1.948-1.569,2.83-2.354c0.868-0.774,1.696-1.565,2.461-2.353c0.75-0.772,1.45-1.555,2.086-2.326  c0.706-0.861,1.316-1.687,1.865-2.523c0.537-0.819,1.008-1.64,1.397-2.437c0.384-0.787,0.698-1.571,0.934-2.328  c0.236-0.748,0.398-1.49,0.486-2.202c0.087-0.703,0.104-1.395,0.05-2.059c-0.062-0.72-0.206-1.414-0.43-2.062  c-0.217-0.634-0.515-1.246-0.89-1.818c-0.375-0.577-0.842-1.122-1.375-1.625c-0.002-0.002-0.005-0.005-0.009-0.007  c-0.013-0.012-0.022-0.027-0.037-0.04c-0.005-0.003-0.009-0.006-0.013-0.008c-0.002-0.002-0.004-0.006-0.006-0.008l-0.005,0.002  c-0.006-0.006-0.008-0.015-0.015-0.021c-4.81-4.386-13.486-3.84-16.996-3.402c-5.476,0.684-11.198,2.472-16.546,5.171  c-5.495,2.771-10.293,6.37-13.875,10.408c-3.467,3.907-5.683,8.149-6.475,12.257l-0.241-0.67c-0.001-0.005-0.001-0.007-0.002-0.011  C28.698,46.111,33.72,40.06,36.814,37.087z M60.098,39.41c4.335-0.159,14.908-0.04,21.703,4.268  c-1.529,2.194-3.373,4.102-4.766,5.401c-3.573,3.339-7.697,6.252-12.978,9.17c-6.223,3.437-13.07,6.203-19.948,8.139  c-0.767-0.222-1.494-0.46-2.188-0.711c-0.14-0.051-0.285-0.099-0.422-0.152c-0.174-0.065-0.337-0.135-0.506-0.203  c-0.31-0.125-0.619-0.251-0.921-0.385c-0.175-0.077-0.345-0.158-0.516-0.238c-0.218-0.103-0.433-0.207-0.645-0.313  c-1.445-0.733-2.747-1.578-3.976-2.575c-1.501-1.27-2.702-2.692-3.592-4.219c-0.001-0.008-0.002-0.016-0.003-0.021  c0-0.007-0.001-0.014-0.002-0.021c-0.044-1.911,0.289-3.745,0.837-5.457c0.054-0.066,0.1-0.142,0.131-0.228  c0.218-0.593,0.473-1.163,0.735-1.729c0.151-0.323,0.306-0.646,0.477-0.969c0.034-0.066,0.071-0.129,0.105-0.194  c0.959-1.777,2.192-3.54,3.668-5.243C44.793,41.183,52.674,39.687,60.098,39.41z M39.608,41.303c0.49-0.471,0.994-0.936,1.52-1.392  c1.536-1.329,3.221-2.595,5.008-3.761c1.751-1.142,3.61-2.197,5.528-3.135c1.959-0.958,3.992-1.803,6.038-2.509  c2.093-0.72,4.205-1.297,6.281-1.716c1.971-0.398,3.911-0.652,5.764-0.754c0.946-0.053,1.88-0.065,2.775-0.034  c0.893,0.029,1.759,0.099,2.576,0.208c0.823,0.111,1.608,0.261,2.336,0.447c0.729,0.186,1.421,0.413,2.057,0.675  c0.634,0.262,1.219,0.56,1.74,0.889c0.483,0.304,0.923,0.64,1.309,0.999c0.004,0.003,0.011,0.005,0.015,0.009  c0.002,0.004,0.004,0.009,0.008,0.013c0,0,0,0.002,0.003,0.002c1.388,1.304,2.098,2.932,2.11,4.837c0,0,0,0,0,0  c0.017,2.113-0.818,4.257-1.998,6.236c-6.885-4.395-17.061-4.731-22.635-4.522C53.397,38.047,46.394,39.254,39.608,41.303z   M7.664,59.107C7.664,59.107,7.664,59.107,7.664,59.107c0.001-0.006,0.002-0.013,0.004-0.02h0c0.164-0.643,0.411-1.306,0.735-1.975  c0.329-0.679,0.727-1.35,1.217-2.05c0.481-0.688,1.045-1.391,1.673-2.086c0.631-0.698,1.315-1.379,2.093-2.081  c0.743-0.67,1.555-1.34,2.411-1.993c0.029-0.022,0.059-0.046,0.087-0.068c0.424-0.321,0.868-0.642,1.321-0.96  c0.093-0.065,0.187-0.131,0.279-0.195c0.442-0.306,0.895-0.61,1.359-0.91c0.068-0.044,0.136-0.087,0.204-0.131  c1.053-0.673,2.172-1.338,3.332-1.976c1.119-0.615,2.297-1.218,3.501-1.792c0,0,0,0,0.001,0c2.095-0.999,3.97-1.98,5.661-2.956  c-0.303,0.412-0.595,0.826-0.864,1.241c-0.525,0.809-0.991,1.632-1.384,2.446c-0.398,0.819-0.734,1.655-1,2.481  c-0.247,0.766-0.438,1.545-0.57,2.315c-0.142,0.828-0.215,1.663-0.218,2.483c-0.003,0.821,0.065,1.638,0.199,2.428l0,0  c0,0.001,0,0.003,0,0.003c0.001,0.004,0.001,0.009,0.002,0.013c0,0.001,0.001,0.003,0.001,0.004  c0.003,0.021,0.009,0.049,0.012,0.068c0,0.001,0,0.001,0,0.001c0,0.001,0,0.003,0,0.004c0,0.002,0.002,0.009,0.002,0.01  c0,0.002,0.001,0.003,0.001,0.004c0.144,0.81,0.361,1.614,0.648,2.394c0.29,0.788,0.658,1.567,1.093,2.316  c0.436,0.747,0.949,1.48,1.527,2.181c0.579,0.7,1.234,1.378,1.947,2.014c0.716,0.641,1.504,1.251,2.343,1.815  c0.777,0.523,1.614,1.021,2.49,1.478c0.123,0.063,0.254,0.121,0.379,0.184c0.248,0.126,0.503,0.247,0.759,0.366  c0.159,0.074,0.314,0.149,0.475,0.222c0.351,0.156,0.714,0.306,1.083,0.452c0.108,0.044,0.213,0.093,0.322,0.134  c0.032,0.013,0.065,0.023,0.097,0.036c0.128,0.048,0.262,0.094,0.393,0.142c-2.45,0.604-4.894,1.105-7.304,1.479  c-4.395,0.681-10.843,1.27-16.604,0.204c-3.151-0.582-5.716-1.615-7.417-2.99C7.757,64.062,6.986,61.796,7.664,59.107z   M92.829,51.629c-0.037,0.747-0.15,1.51-0.338,2.269c-0.191,0.778-0.462,1.567-0.809,2.345c-0.344,0.78-0.772,1.573-1.271,2.354  c-0.507,0.785-1.086,1.566-1.728,2.319c-0.645,0.758-1.369,1.513-2.15,2.243c-0.78,0.724-1.634,1.438-2.541,2.122  c-0.896,0.676-1.864,1.336-2.878,1.963c-1.952,1.205-4.09,2.29-6.352,3.229c-0.096,0.04-0.191,0.082-0.287,0.121  c-0.527,0.216-1.061,0.422-1.601,0.62c-0.346,0.127-0.698,0.247-1.05,0.366c-0.623,0.215-1.251,0.417-1.884,0.608  c-0.534,0.16-1.069,0.314-1.607,0.458c-0.312,0.082-0.623,0.166-0.936,0.243c-0.809,0.197-1.619,0.382-2.434,0.542  c-0.202,0.04-0.404,0.073-0.608,0.111c-0.733,0.135-1.47,0.255-2.207,0.358c-0.196,0.027-0.392,0.059-0.59,0.084  c-0.848,0.109-1.696,0.194-2.542,0.26c-0.231,0.018-0.465,0.031-0.696,0.046c-0.785,0.05-1.567,0.083-2.345,0.093  c-0.129,0.002-0.258,0.009-0.385,0.01c-1.222,0.004-2.454-0.038-3.65-0.132l0,0c-0.001,0-0.001,0-0.001,0  c-1.013-0.077-2.019-0.099-3.02-0.093c1.188-0.369,2.378-0.756,3.562-1.175c1.606-0.568,3.205-1.181,4.751-1.819  c1.731-0.713,3.472-1.49,5.17-2.308c1.53-0.736,3.036-1.511,4.479-2.302c1.454-0.796,2.884-1.631,4.253-2.481  c1.503-0.934,2.98-1.917,4.391-2.925c1.238-0.885,2.447-1.808,3.597-2.743c1.259-1.024,2.457-2.076,3.558-3.123  s2.13-2.109,3.055-3.156c0.924-1.044,1.775-2.101,2.528-3.142c0.741-1.024,1.412-2.063,1.987-3.088  c0.553-0.979,1.025-1.961,1.413-2.921c0.163,1.642,0.396,3.241,0.721,4.804c0,0,0,0,0,0.001c0,0.007,0.003,0.014,0.005,0.021  l0.32,1.548c0,0.006,0.002,0.013,0.002,0.019c0.115,0.717,0.154,1.458,0.121,2.204C92.831,51.597,92.831,51.613,92.829,51.629z"></path></svg></g></g></svg>